<svg width="14" height="16" fill="none" xmlns="http://www.w3.org/2000/svg"><path d="M12.5 0h-11C.7 0 0 .7 0 1.5v13c0 .8.7 1.5 1.5 1.5h11c.8 0 1.5-.7 1.5-1.5v-13c0-.8-.7-1.5-1.5-1.5zM4 13.6c0 .2-.2.4-.4.4H2.4c-.2 0-.4-.2-.4-.4v-1.2c0-.2.2-.4.4-.4h1.2c.2 0 .4.2.4.4v1.2zm0-4c0 .2-.2.4-.4.4H2.4c-.2 0-.4-.2-.4-.4V8.4c0-.2.2-.4.4-.4h1.2c.2 0 .4.2.4.4v1.2zm4 4c0 .2-.2.4-.4.4H6.4c-.2 0-.4-.2-.4-.4v-1.2c0-.2.2-.4.4-.4h1.2c.2 0 .4.2.4.4v1.2zm0-4c0 .2-.2.4-.4.4H6.4c-.2 0-.4-.2-.4-.4V8.4c0-.2.2-.4.4-.4h1.2c.2 0 .4.2.4.4v1.2zm4 4c0 .2-.2.4-.4.4h-1.2c-.2 0-.4-.2-.4-.4V8.4c0-.2.2-.4.4-.4h1.2c.2 0 .4.2.4.4v5.2zm0-8c0 .2-.2.4-.4.4H2.4c-.2 0-.4-.2-.4-.4V2.4c0-.2.2-.4.4-.4h9.2c.2 0 .4.2.4.4v3.2z" fill="#000"/></svg>