<svg width="13" height="14" fill="none" xmlns="http://www.w3.org/2000/svg"><path d="M10.18 7.531l-4 4a.26.26 0 01-.18.07.26.26 0 01-.18-.07l-2.25-2.25a.26.26 0 01-.07-.18c0-.067.023-.124.07-.171l.36-.36a.234.234 0 01.172-.07.26.26 0 01.18.07L6 10.29l3.469-3.47a.26.26 0 01.18-.07c.067 0 .124.023.171.07l.36.36c.047.047.07.104.07.172a.26.26 0 01-.07.18zM1 13h11V5H1v8zm3-9.5V1.25a.243.243 0 00-.07-.18.243.243 0 00-.18-.07h-.5a.243.243 0 00-.18.07.243.243 0 00-.07.18V3.5c0 .073.023.133.07.18.047.047.107.07.18.07h.5a.243.243 0 00.18-.07A.243.243 0 004 3.5zm6 0V1.25a.243.243 0 00-.07-.18.243.243 0 00-.18-.07h-.5a.243.243 0 00-.18.07.243.243 0 00-.07.18V3.5c0 .073.023.133.07.18.047.047.107.07.18.07h.5a.243.243 0 00.18-.07.243.243 0 00.07-.18zm3-.5v10c0 .27-.099.505-.297.703A.961.961 0 0112 14H1a.961.961 0 01-.703-.297A.961.961 0 010 13V3c0-.27.099-.505.297-.703A.961.961 0 011 2h1v-.75c0-.344.122-.638.367-.883S2.907 0 3.25 0h.5c.344 0 .638.122.883.367S5 .907 5 1.25V2h3v-.75c0-.344.122-.638.367-.883S8.907 0 9.25 0h.5c.344 0 .638.122.883.367s.367.54.367.883V2h1c.27 0 .505.099.703.297A.961.961 0 0113 3z" fill="#000"/></svg>