<svg width="20" height="16" fill="none" xmlns="http://www.w3.org/2000/svg"><g clip-path="url(#clip0)"><path d="M15.25 6H10.5v1.75C10.5 8.99 9.49 10 8.25 10S6 8.99 6 7.75v-3.8L3.972 5.169A1.996 1.996 0 003 6.88v1.48L.5 9.803a.998.998 0 00-.366 1.366l2.5 4.331A1 1 0 004 15.866L7.231 14H11.5c1.103 0 2-.897 2-2h.5a1 1 0 001-1V9h.25c.416 0 .75-.334.75-.75v-1.5a.748.748 0 00-.75-.75zm4.616-1.169L17.366.5A1 1 0 0016 .134L12.769 2H9.575c-.375 0-.74.106-1.06.303l-1.046.653A.993.993 0 007 3.803V7.75a1.25 1.25 0 102.5 0V5h5.75c.966 0 1.75.784 1.75 1.75v.89l2.5-1.443c.478-.278.64-.888.366-1.366z" fill="#000"/></g><defs><clipPath id="clip0"><path fill="#fff" d="M0 0h20v16H0z"/></clipPath></defs></svg>