<svg width="32" height="24" fill="none" xmlns="http://www.w3.org/2000/svg"><path d="M14 16.938c0 .572-.164 1.06-.492 1.46-.328.401-.721.602-1.18.602H5.672c-.458 0-.852-.2-1.18-.602-.328-.4-.492-.888-.492-1.46 0-.563.04-1.086.117-1.57a6.84 6.84 0 01.383-1.407c.177-.453.443-.81.797-1.07.354-.26.776-.391 1.266-.391.666.667 1.479 1 2.437 1 .958 0 1.77-.333 2.438-1 .49 0 .911.13 1.265.39.354.261.62.618.797 1.07.177.454.305.923.383 1.407a9.88 9.88 0 01.117 1.57zM12 10c0 .833-.292 1.542-.875 2.125A2.893 2.893 0 019 13a2.893 2.893 0 01-2.125-.875A2.893 2.893 0 016 10c0-.833.292-1.542.875-2.125A2.893 2.893 0 019 7c.833 0 1.542.292 2.125.875S12 9.167 12 10zm16 6.5v1a.487.487 0 01-.14.36.487.487 0 01-.36.14h-11a.487.487 0 01-.36-.14.487.487 0 01-.14-.36v-1a.49.49 0 01.14-.36.487.487 0 01.36-.14h11a.49.49 0 01.36.14.49.49 0 01.14.36zm-6-4v1a.487.487 0 01-.14.36.487.487 0 01-.36.14h-5a.487.487 0 01-.36-.14.487.487 0 01-.14-.36v-1a.49.49 0 01.14-.36.487.487 0 01.36-.14h5a.49.49 0 01.36.14.49.49 0 01.14.36zm6 0v1a.487.487 0 01-.14.36.487.487 0 01-.36.14h-3a.487.487 0 01-.36-.14.487.487 0 01-.14-.36v-1a.49.49 0 01.14-.36.487.487 0 01.36-.14h3a.49.49 0 01.36.14.49.49 0 01.14.36zm0-4v1a.487.487 0 01-.14.36.487.487 0 01-.36.14h-11a.487.487 0 01-.36-.14.487.487 0 01-.14-.36v-1a.49.49 0 01.14-.36.487.487 0 01.36-.14h11a.49.49 0 01.36.14.49.49 0 01.14.36zm2 13V4H2v17.5c0 .135.05.253.148.352A.48.48 0 002.5 22h27a.48.48 0 00.352-.148A.48.48 0 0030 21.5zm2-19v19a2.41 2.41 0 01-.734 1.766c-.49.49-1.078.734-1.766.734h-27a2.407 2.407 0 01-1.766-.734A2.407 2.407 0 010 21.5v-19C0 1.812.245 1.224.734.734A2.407 2.407 0 012.5 0h27a2.41 2.41 0 011.766.734c.49.49.734 1.079.734 1.766z" fill="#000"/></svg>