<svg width="41" height="39" fill="none" xmlns="http://www.w3.org/2000/svg"><path d="M29 2.286c3.3 0 6 2.057 6 4.571 0 2.4-3.15 6.286-6 9.029-2.85-2.857-6-6.629-6-9.029 0-2.514 2.7-4.571 6-4.571zM29 0c-4.95 0-9 3.086-9 6.857C20 12 29 19.43 29 19.43s9-7.543 9-12.572C38 3.086 33.95 0 29 0zm0 4.571c-1.65 0-3 1.029-3 2.286 0 1.257 1.35 2.286 3 2.286s3-1.029 3-2.286c0-1.257-1.35-2.286-3-2.286zM41 19.43C41 21.943 35.6 24 29 24s-12-2.057-12-4.571c0-1.486 1.8-2.743 4.65-3.658l.9 1.029c-1.5.571-2.55 1.257-2.55 2.057 0 1.6 4.05 2.857 9 2.857s9-1.257 9-2.857c0-.8-1.05-1.486-2.7-2.057l.9-1.029c3 .915 4.8 2.172 4.8 3.658zM8.499 21.627c.867 0 1.698.305 2.311.847.614.543.958 1.279.958 2.046 0 .768-.345 1.503-.958 2.046-.613.543-1.444.847-2.311.847s-1.699-.304-2.312-.847c-.613-.543-.958-1.278-.958-2.046 0-.767.345-1.503.958-2.046.613-.542 1.445-.847 2.312-.847zm0 1.157c-.52 0-1.02.183-1.387.509a1.641 1.641 0 00-.575 1.227c0 .46.207.902.575 1.228a2.1 2.1 0 001.387.508c.52 0 1.019-.183 1.387-.508.368-.326.574-.767.574-1.228 0-.46-.206-.902-.574-1.227a2.098 2.098 0 00-1.387-.509zm-6.146 5.043l6.146 8.945 6.146-8.945a5.836 5.836 0 001.045-3.199 5.797 5.797 0 00-.922-3.227c-.626-.985-1.537-1.804-2.638-2.375a7.92 7.92 0 00-3.631-.87c-1.277 0-2.53.3-3.631.87-1.102.57-2.012 1.39-2.638 2.375a5.797 5.797 0 00-.923 3.227 5.836 5.836 0 001.046 3.198zm13.409.601L8.499 39 1.236 28.428A6.898 6.898 0 010 24.648a6.852 6.852 0 011.09-3.814c.74-1.163 1.816-2.131 3.118-2.805A9.36 9.36 0 018.5 17a9.36 9.36 0 014.291 1.029c1.302.674 2.378 1.642 3.117 2.805a6.851 6.851 0 011.09 3.815 6.897 6.897 0 01-1.234 3.78h-.002z" fill="#000"/><path stroke="#000" d="M10.723 37.584l3-2M14.5 35l4.379-1.485m.674-.739l2-4m-.038-.897l1-4"/><path stroke="#fff" d="M23.776 22.553l4-2"/><path stroke="#020202" d="M25.776 21.553l2-1"/></svg>