<svg width="14" height="16" fill="none" xmlns="http://www.w3.org/2000/svg"><path fill-rule="evenodd" clip-rule="evenodd" d="M4.443 1.991c-.915.246-1.823.513-2.725.802a.454.454 0 00-.315.366C.87 7.056 2.1 9.9 3.567 11.773c.736.94 1.533 1.636 2.197 2.093.333.228.626.394.857.5.116.053.21.089.282.11.032.01.064.018.097.024.007-.001.038-.005.097-.023.072-.022.166-.058.282-.111.23-.106.525-.272.857-.5a10.198 10.198 0 002.197-2.093C11.9 9.9 13.13 7.056 12.597 3.159a.455.455 0 00-.315-.366c-.626-.2-1.682-.526-2.725-.802C8.491 1.71 7.51 1.5 7 1.5c-.51 0-1.49.21-2.557.491zm-.256-.966C5.23.749 6.337.5 7 .5c.662 0 1.77.249 2.813.525.93.25 1.855.522 2.772.815.528.168.926.623 1.003 1.184.573 4.197-.756 7.307-2.367 9.365a11.19 11.19 0 01-2.418 2.3c-.319.223-.656.42-1.007.586-.27.124-.558.225-.796.225s-.526-.101-.796-.225a6.91 6.91 0 01-1.007-.586 11.193 11.193 0 01-2.417-2.3C1.167 10.331-.161 7.221.412 3.024A1.454 1.454 0 011.415 1.84a61.104 61.104 0 012.772-.815z" fill="#000"/><path fill-rule="evenodd" clip-rule="evenodd" d="M9.854 6.146a.5.5 0 010 .708l-3 3a.5.5 0 01-.708 0l-1.5-1.5a.5.5 0 01.708-.708L6.5 8.793l2.646-2.647a.5.5 0 01.708 0z" fill="#000"/></svg>