<svg xmlns="http://www.w3.org/2000/svg" width="400" height="400"><path fill="#771214" stroke="#000" stroke-width="2" stroke-miterlimit="10" d="M312.648 362.539c0 5.501-5.531 9.961-12.355 9.961H87.677c-6.823 0-12.355-4.46-12.355-9.961V57.453c0-5.501 5.532-9.961 12.355-9.961h212.616c6.824 0 12.355 4.46 12.355 9.961v305.086z"/><path fill="#FFF" stroke="#000" stroke-width="2" stroke-miterlimit="10" d="M88.071 60.154h210.445V360.54H88.071z"/><path fill="#828282" d="M232.667 42.367v8.366-.288 4.039h18.999c4.453 0 8.064 3.983 8.064 8.898v4.898H126.858v-4.898c0-4.915 3.61-8.898 8.064-8.898h19V50.54v.288-8.465h30.117c2.829 0 5.553.188 8.45.064a88.843 88.843 0 016.722-.06c1.235.038 2.252.021 3.486-.002 1.916-.036 3.835 0 5.751 0l15.513.001 8.706.001z"/><path fill="#828282" d="M185.541 41.672c1.29 0 3.727.553 3.965-1.125.14-.981-.435-1.236-.682-1.959-.266-.777-.176-2.024-.274-2.852-.216-1.818.869-3.695 2.528-4.5 1.394-.677 3.443-1.688 4.783-.442 1.135 1.053 1.788 2.97 2.239 4.521.681 2.335-.75 5.395-2.634 6.552-.34.208-.69.5-1.074.59-.292.069-.647.005-.944.007-.439.002-.896.001-1.323-.125-.459-.135-.465-.319-.725-.67-.479-.65-1.433-.601-2.108-.746-1.02-.219-2.191.09-3.102.607-.391.222-.977.594-1.147 1.077-.209.594.371.52.774.525 3.108.04 6.216.086 9.324.144 1.25.023 2.5.043 3.749.054.474.004 1.369.205 1.801-.001.364-.173.483-.871.565-1.255.324-1.498.656-2.986.999-4.479.021-.092.04-.186.06-.279.137-.695-.039-1.591-.15-2.283-.238-1.489-.74-2.928-1.557-4.15-.34-.509-.558-1.032-1.02-1.466-.514-.483-1.167-.735-1.699-1.202-.502-.439-.841-.852-1.465-1.13-.454-.203-.996-.375-1.467-.372-.545.003-1.115-.064-1.63.106-.505.168-1.033.333-1.554.435-1.2.234-2.417.201-3.417 1.042a9.439 9.439 0 00-1.566 1.668c-.477.645-.755 1.441-1.118 2.196-.456.946-.91 1.904-1.232 2.917-.252.792-.214 1.64-.144 2.468.052.609.333 1.2.454 1.797.228 1.116.607 2.229.982 3.289"/><path fill="none" stroke="#000" stroke-miterlimit="10" d="M185.528 41.975c-.588-1.418-1.132-3.155-1.132-4.94 0-5.659 3.984-10.246 8.899-10.246 4.915 0 8.995 4.148 8.9 10.246-.025 1.581-.679 3.776-1.503 5.33h0l31.975.002v8.366-.289 4.039h18.999c4.453 0 8.064 3.984 8.064 8.898v4.898H126.858v-4.898c0-4.915 3.61-8.898 8.064-8.898h19v-3.945.289-8.465h30.117l1.656.004a18.39 18.39 0 01-.167-.391"/><ellipse fill="none" stroke="#000" stroke-miterlimit="10" cx="193.405" cy="36.258" rx="5.174" ry="6.108"/><path fill="none" stroke="#000" stroke-width="2" stroke-miterlimit="10" d="M110.708 104.993h25v26.352h-25z"/><path fill="#5E92CC" stroke="#000" stroke-width="2" stroke-miterlimit="10" d="M110.708 114.396l18.969 5.363 41.383-39.313-38.736 49.094z"/><path fill="none" stroke="#000" stroke-width="2" stroke-miterlimit="10" d="M159.352 131.345h121.162m-169.431 34.13h25v26.352h-25z"/><path fill="#5E92CC" stroke="#000" stroke-width="2" stroke-miterlimit="10" d="M111.083 174.877l18.969 5.363 41.383-39.312-38.736 49.093z"/><path fill="none" stroke="#000" stroke-width="2" stroke-miterlimit="10" d="M159.727 191.826h121.162m-170.153 37.513h25v26.352h-25z"/><path fill="#5E92CC" stroke="#000" stroke-width="2" stroke-miterlimit="10" d="M110.736 238.741l18.97 5.363 41.382-39.312-38.735 49.093z"/><path fill="none" stroke="#000" stroke-width="2" stroke-miterlimit="10" d="M159.38 255.69h121.163m-169.432 34.13h25v26.352h-25z"/><path fill="#5E92CC" stroke="#000" stroke-width="2" stroke-miterlimit="10" d="M111.111 299.223l18.97 5.363 41.382-39.313-38.735 49.093z"/><path fill="none" stroke="#000" stroke-width="2" stroke-miterlimit="10" d="M159.755 316.172h121.163"/><path fill="#4853A4" stroke="#000" stroke-miterlimit="10" d="M191.719 284.044l-8.512 19.934h0l20.224-9.23"/><path fill="#5F92CD" stroke="#000" stroke-miterlimit="10" d="M191.407 284.384l116.485-127.466 11.712 10.703-116.485 127.467z"/><ellipse transform="rotate(-47.574 314.166 162.371)" fill="#5F92CD" stroke="#000" stroke-miterlimit="10" cx="314.149" cy="162.362" rx="2.349" ry="10.03"/><path fill="#5F92CD" stroke="#000" stroke-miterlimit="10" d="M287.736 205.709c-.876.958-4.9-1.295-8.988-5.029-4.088-3.737-6.692-7.544-5.818-8.503l.475-.52 33.025-35.714 14.808 13.532-32.815 35.907-.687.327z"/><path fill="#4853A4" stroke="#000" stroke-miterlimit="10" d="M271.553 205.552l39.313-43.02 3.402 3.11-39.313 43.02zm44.798-45.601c4.091 3.737 6.697 7.543 5.821 8.501-.875.959-4.902-1.294-8.99-5.031-4.088-3.736-6.692-7.542-5.816-8.5.874-.959 4.9 1.294 8.985 5.03z"/></svg>