<svg width="83" height="137" fill="none" xmlns="http://www.w3.org/2000/svg"><path d="M74 104.146c0 23.06-11.423 23.247-27.671 22.739-18.044-.565-40.536-4.06-38.155-28.336 2.05-20.907 15.544-44.878 34.724-43.492C62.458 56.47 74 82.597 74 104.146z" fill="#5691FF"/><path d="M41.426 56C22.942 56 10.48 79.974 9.105 100.469 7.515 124.183 24.322 134 41.289 134c-15.392 0-31.939-8.488-31.165-30.364.741-20.954 14.078-37.479 31.29-37.479 16.392 0 28.995 14.796 30.346 34.772C73.31 123.876 58.063 134 41.314 134c16.384 0 32.387-9.369 31.662-32.111C72.31 80.93 60.45 56 41.426 56" fill="#55B4FF"/><path d="M17.122 70.057c-10.5 15.869-16.263 44.847.167 58.077 13.363 10.758 37.787 10.977 50.062-2.428 12.952-14.145 7.507-41.152-1.96-55.797-13.012-20.125-35.12-19.68-48.269.148zM8.27 104.833c0-22.32 13.689-50.326 34.556-48.863 18.797 1.318 30.08 25.437 30.723 45.982.682 21.81-14.165 31.439-30.494 31.957-15.6.498-34.785-6.558-34.785-29.076" fill="#2B4DDD"/><path d="M41.928 123.144C31.056 123.144 17.93 121.153 10 111c2.786 16.923 17.592 22.559 30.046 22.972 13.351.445 29.761-4.366 32.954-22.748-7.697 9.992-20.452 11.92-31.072 11.92z" fill="#3F7CFF"/><path d="M41.452 56c17.693 0 29.354 21.335 31.211 40.336 2.149 21.974-10.707 33.917-28.062 35.039C29.023 132.38 9.06 125.58 9.06 103.133c0-20.555 11.85-45.512 30.729-47.074-18.91 1.526-31.07 25.959-31.765 46.592-.793 23.48 18.17 31.842 34.962 31.327 17.422-.535 32.364-11.325 30.917-34.087C72.608 79.531 60.443 56 41.453 56" fill="#3F7CFF"/><path d="M57.242 59.462c-10.053-7.071-23.142-5.917-33.401.395 2.919 4.551 6.257 8.847 10.004 12.748 2.182 2.269 6.107 7.137 9.39 7.791 7.419 1.483 13.308-16.05 14.007-20.934" fill="#F4F4F4"/><path d="M26.949 63.083c.338 2.302 1.538 2.453 3.002 1.286a32.254 32.254 0 01-3.002-1.286zm29.603-.322l-1.859.888 1.332.855.527-1.743zm-31.073-.444c.365.53.622.342 0 0z" fill="url(#paint0_radial)"/><path d="M33.73 74.689c0-2.667 19.451.125 21.361.539 2.826.618 4.326.971 3.703 4.046-.863 4.262-2.514 8.442-4.229 12.421-1.072 2.486-2.679 7.614-5.361 8.914-1.754.851-4.552-4.48-5.178-5.477-2.52-4.006-4.752-8.202-6.856-12.438-1.057-2.131-3.44-5.518-3.44-8.005" fill="#D6DBFF"/><path d="M50.306 80.083c1.025 2.654 4.164 8.347 3.134 11.172-1.019 2.792-3.354 11.488-6.845 7.531-4.051-4.591-4.409-7.113-2.89-12.747 1.473-5.453 1.021-5.538 6.601-5.956z" fill="#5691FF"/><path d="M50.231 79.109c-5.378.408-5.572-.197-6.993 4.937-1.854 6.69-2.21 10.018 2.751 15.526 4.294 4.779 7.005-4.37 8.248-7.665.947-2.513-1.686-12.225-4.006-12.798zm-.58 2c2.556 6.686 4.179 12.175-1.239 18.091-2.041-1.473-5.481-5.659-4.911-8.353.456-2.147 1.063-4.266 1.648-6.381.926-3.347 1.171-3.107 4.502-3.357" fill="#2B4DDD"/><path d="M42.163 76.226c.972-.757 3.157-3.26 4.333-3.371.666-.063 4.449 1.736 4.519 2.338.805 6.936-6.652 6.39-8.852 1.033z" fill="#5691FF"/><path d="M45.896 72.081c-.843.658-5.12 3.253-4.773 4.154 1.115 2.9 3.563 5.877 7.026 5.354 7.033-1.066 3.919-10.754-2.253-9.508zm.732 1.908l3.447 1.578c.111 1.628-.157 3.786-2.219 4.088-1.651.254-2.975-.854-3.853-2.102-1.198-1.702 1.29-2.519 2.625-3.564z" fill="#2B4DDD"/><path d="M52.651 64a33.099 33.099 0 01-11.866 2.194c-4.659 0-8.498-2.01-12.785-.148 2.869 5.048 5.976 9.966 9.083 14.869 1.629-1.888 6.117-7.502 8.946-7.766 2.743-.256 8.024 4.145 9.965 5.621a72.39 72.39 0 001.716-8.896c.468-3.641-2.208-4.042-5.059-5.874z" fill="url(#paint1_linear)"/><path d="M43.838 57L22 66.472c4.505 5.992 8.49 12.169 12.502 18.506 2.708-4.196 8.405-12.517 13.745-9.804 1.9.964 9.105 7.367 10.564 6.923 2.576-.793 3.386-7.814 3.84-9.926 1.025-4.785-3.376-5.561-7.259-8.054-3.342-2.148-7.805-6.243-11.554-7.117zm.182 1.259c4.099 2.657 8.222 5.282 12.333 7.919l5.348 3.431c.781.503-1.822 10.323-3.192 11.261-2.293-2.257-9.366-8.709-13.079-8.305-3.649.395-9.02 7.624-10.881 10.212-3.405-5.413-6.815-10.685-10.64-15.805 6.71-2.885 13.401-5.822 20.111-8.713z" fill="#6E92F9"/><path d="M26.003 63.254C31.825 76.044 39.518 88 46.632 99.938c4.855-7.213 7.758-16.249 9.308-24.995a83.992 83.992 0 001.236-11.874c.02-.57 3.557 2.59 3.744 2.792 1.271 1.374 3.685 3.883 3.357 6.128-.33 2.237-4.817 2.722-4.817 4.41 0 2.064 6.864.902 5.311 4.586-1.674 3.966-4.492 7.56-7.067 10.826-2.91 3.698-8.751 12.44-13.094 9.648-5.467-3.512-10.857-7.361-15.668-11.925-.869-.821-4.807-3.883-3.719-5.563.814-1.257 7.416-5.735 3.983-6.625-2.717-.704-8.385-.06-8.202-4.613.143-3.595 2.831-7.028 5-9.48" fill="#5691FF"/><path d="M25.24 62.931C22.852 65.456 20 69.18 20 72.975c0 5.212 5.983 4.237 9.172 5.304-3.953 5.522-7.242 5.535-1.417 11.057 2.654 2.518 5.537 4.756 8.468 6.875 1.949 1.412 8.056 7.074 10.32 6.778 1.852-.242 4.842-3.935 6.158-5.25 3.113-3.103 5.966-6.524 8.54-10.154 3.759-5.294 6.415-8.693-.706-11.393 4.596-2.956 5.276-5.405 1.444-9.838-1.112-1.287-3.176-3.864-4.949-4.023-1.882-.168-1.52 6.818-1.693 8.183-1.187 9.374-4.032 18.931-8.976 26.824C39.363 85.888 31.638 74.381 26.114 62c-.291.313-.584.623-.874.931zm2.82 19.049c4.853-4.29 2.58-5.46-2.532-6.319-6.3-1.053-2.792-6.862.127-10.39 6.068 12.186 13.4 23.773 20.51 35.276-5.528-3.386-10.947-7.1-15.875-11.448-3.018-2.663-5.81-3.954-2.23-7.119zm18.967 17.67c7.037-9.403 10.003-23.176 10.59-34.904 2.24 1.73 7.635 6.22 3.764 8.719-7.467 4.824 1.051 2.81 2.35 6.371-.444 3.193-4.23 7.084-6.04 9.403-3.179 4.072-7.054 8.954-11.373 11.398l.709-.987" fill="#2B4DDD"/><path d="M72.611 35.625c0 16.819-14.704 29.945-31.16 29.945S10.292 52.445 10.292 35.625 24.987 5.664 41.451 5.664c16.466 0 31.16 13.135 31.16 29.961" fill="#FCD095"/><path d="M20.552 24.38c7.105-8.318 19.498-10.375 29.683-7.564 11.167 3.082 16.838 12.109 18.526 23.097C71.243 23.574 57.601 9.406 41.45 9.406c-16.169 0-29.785 14.179-27.309 30.521.843-5.476 2.771-11.272 6.411-15.547" fill="#FFE2AE"/><path d="M71.489 32.017C69.76 45.32 62.459 55.493 48.56 57.92c-17.01 2.973-34.852-7.91-37.146-25.899C8.908 50.48 25.441 65.816 43.439 64.688c16.633-1.042 30.213-15.796 28.05-32.671z" fill="#FABB78"/><path d="M11.379 32.092c-.813 1.694-.388 4.029-.133 5.782a28.364 28.364 0 01.133-5.782zm59.651-2.775c3.902 16.911-8.826 33.075-25.636 35.187-9.197 1.158-18.654-1.849-25.357-8.285-6.042-5.805-7.714-13.415-10.608-20.727 0 17.46 15.024 30.912 32.021 30.912 19.038 0 35.268-17.132 31.47-36.502.16.365.134.678-.081.944a5.775 5.775 0 01-1.809-1.529zm1.146-1.737c.034.744.034.744 0 0zm-.031-.519c.034.558.034.558 0 0zm-.025-.303c.023.283.008.075 0 0z" fill="url(#paint2_linear)"/><path d="M63.622 9.999c5.319 5.408 8.267 10.125 8.579 18.137-.016-.474-6-5.621-6.912-6.364-2.241-1.828-4.825 2.076-7.013 3.194-5.531 2.829-13.938 4.986-20.032 2.97-3.257-1.076-7.037-3.259-10.565-2.187-2.042.622-3.348 2.404-4.157 4.288-.822 1.911-.941 9.577-2.182 10.387-.472.305-4.476-8.778-5.009-9.587-6.491-9.828-6.333 7.344-5.56 7.149-4.173 1.039-.913-16.605-.296-17.99 2.931-6.581 8.27-11.659 14.725-14.747C36.876-.337 54.107.256 63.622 9.999" fill="#C48E53"/><path d="M8.384 30.29c.077 1.786 1.136 3.766 1.136 5.424-.226-.53 1.01 2.457 1.264 2.265.409-2.72-1.855-5.035-2.4-7.689zm55.033-12.057c-.721 0-3.177 2.711-3.924 3.174-2.185 1.352-4.615 2.295-7.086 2.98-6.548 1.815-11.752 1.105-18.231.036-3.759-.618-7.025-2.871-9.781.793-1.062 1.411-3.777 12.553-3.482 12.553-1.411 0-4.004-8.16-4.756-9.373-.889-1.438-3.605-3.591-5.321-2.227-1.774 1.408-.872 5.2-.59 7.035-.751-3.993 1.699-5.624 5.019-3.552 1.301 1.246 4.823 10.945 6.019 10.797.411-.095 1.97-10.09 2.811-11.573 1.166-2.063 3.036-3.384 5.443-3.384 4.122.141 7.688 3.068 11.764 3.068 5.175 0 10.479-.783 15.271-2.802 1.598-.674 5.926-4.838 7.173-4.838 3.266-.635 5.41 7.404 8.341 7.404.459 0-.302-4.381-.354-4.673.413.763.419 1.427.021 1.993-3.103-.001-4.854-7.411-8.337-7.411z" fill="url(#paint3_linear)"/><path d="M59.351 18.681c0 9.547-35.024 8.686-35.024.637 6.436 1.407 13.557 2.576 20.138 1.896 1.709-.179 14.886-4.899 14.886-2.533z" fill="#D8AC77"/><path d="M71.406 21.989c.609 2.588.999 5.299 1.515 7.914-.166-2.684-.604-5.375-1.515-7.914" fill="#F3D4B2"/><path d="M12.264 28.514c-.528 0-.836 3.203-.885 3.578-.09.191.035-.089.035-.072.582-1.128 1.774-1.125 2.83-.741.385-2.068.415-2.765-1.98-2.765zm49.072-5.466c-3.649 2.822-8.339 4.23-12.832 4.95-6.579 1.059-10.14-.625-16.375-2.154-8.283-2.032-10.009 7.094-10.484 13.461.149.612.017.993-.398 1.147-2.193-2.625-2.904-6.314-4.689-9.258-.333.809 4.18 11.774 5.446 11.774 2.313 0 .169-16.826 10.332-14.734 6.244 1.282 10.115 3.344 16.749 2.308 4.873-.763 10.139-2.325 13.884-5.695a21.062 21.062 0 00-1.633-1.799zm3.021-1.924c2.12 3.006 4.094 5.522 6.673 8.193-.732-3.177-3.751-6.601-6.673-8.193z" fill="#F2BD7E"/><path d="M14.691 29.317c-.822 3.042-.695 1.279 1.447 2.943.562-1.506-.133-2.217-1.447-2.943zm49.053-8.397c-.658 0-1.923 1.753-2.408 2.128.58.569 1.123 1.168 1.631 1.8 1.647-1.48 1.63-1.839 3.483-.201-.425-.862-1.468-3.727-2.706-3.727z" fill="#F3C58A"/><path d="M11.247 37.874l.324 2.585c-.04-.868-.149-1.73-.324-2.585z" fill="#F1B26F"/><path d="M12.067 28.524c-2.128.194-1.916 3.371-1.805 4.795-.003-.02.757 4.505.521 4.66-.395-.733-.927-1.43-1.261-2.252.125.569 1.113 4.792 1.998 4.792-1.466 0 .244-10.834.547-11.995zm60.056-1.766c.033.46.059.917.078 1.377.019.119-.021.181-.116.188a5.44 5.44 0 01-1.74-1.464c.28.849.776 3.986 2.495 3.986.512.001-.644-3.85-.717-4.087" fill="url(#paint4_linear)"/><path d="M21.384 40.387a.184.184 0 01-.138.066c.046-.023.092-.047.138-.066zm-10.695-2.441l.074.04-.074-.04zm-.669-1.124l.197.378-.197-.378zm-.191-.391c.107.216.107.216 0 0zm-.186-.415c.14.313.14.313 0 0zm-.122-.299c0 .013.196.496 0 0zm2.743-7.203l-1.099.355c1.608-.753 4.512 1.042 4.098.783a6.106 6.106 0 00-2.999-1.138zm59.895-.213l-.074.023.074-.023zm.011-.82c.007.132.007.132 0 0zm-.037-.588c.014.224.014.224 0 0zm-42.41-1.401c1.674.118 3.292.486 4.853 1.108-1.559-.556-3.184-1.062-4.853-1.108zm38.507-.872l1.27 1.352-1.27-1.352zm3.153-2.696c.362 1.542.604 3.101.727 4.68-.073-.915-.376-3.763-.727-4.68zm-7.639-1.004c-.313.089-.313.089 0 0z" fill="#D69C5D"/><path d="M10.784 37.979c-.028.01-.028.01 0 0zM9.52 35.714c0 .522.903 1.986 1.169 2.232a10.1 10.1 0 01-1.169-2.232zm.955-.484c0-.994.416 2.67.309 2.749.02-.927-.084-1.845-.309-2.749zm5.202-5.232c1.042 1.348 4.165 10.455 5.569 10.455-2.731-2.806-2.779-7.591-5.569-10.455zm-4.511-1.128c-1.133.904-1.116 3.223-.903 4.45-.102-1.29-.288-3.49.903-4.45zm61.035-.734c-.056.217-.056.217 0 0zM69.5 25.972c.464.572 1.776 2.352 2.585 2.352a10.05 10.05 0 01-2.585-2.352zm-40.144-.48c-2.335.055-4.134 1.387-5.264 3.384-.841 1.482-2.399 11.478-2.811 11.573.375-.197.495-.579.362-1.144.335-4.752 1.261-13.662 7.713-13.813zm.18 0c.381-.004.761.023 1.139.075l-1.139-.075zm33.973-4.506c-4.37 2.914-7.434 5.437-12.866 6.61-7.437 1.608-11.796-.243-18.807-1.822 6.264 1.415 9.976 3.289 16.602 2.233 6.354-1.009 10.007-3.647 15.071-7.021zm.236-.066c1.894.753 3.253 2.438 4.649 3.875-.898-.924-3.058-3.875-4.649-3.875" fill="url(#paint5_linear)"/><path d="M9.21 32.921c0-18.706 18.419-31.275 36.011-29.248C64.414 5.886 79.25 25.432 70.753 44.235 82.32 23.429 62.909 0 41.124 0 19.337 0 .132 23.502 11.663 44.238A27.537 27.537 0 019.21 32.921" fill="url(#paint6_radial)"/><path d="M20.649 40.825c0 4.933-2.434 12.908-8.607 12.908-6.173 0-8.607-7.976-8.607-12.908 0-4.937 2.434-12.912 8.607-12.912 6.173 0 8.607 7.975 8.607 12.912z" fill="#fff"/><path d="M2.936 40.956c.29 5.288 3.246 14.026 9.878 13.928 6.645-.099 8.619-9.058 8.337-14.191-.29-5.292-3.246-14.027-9.879-13.932-6.648.095-8.62 9.061-8.336 14.195zm1.486-.023c-.235-4.289 1.186-12.514 6.937-12.6 5.737-.082 8.063 7.942 8.306 12.379.235 4.292-1.188 12.514-6.938 12.599-5.736.083-8.063-7.938-8.305-12.378" fill="url(#paint7_linear)"/><path d="M11.659 40.825c0 10.244-11.092 10.244-11.092 0 0-10.249 11.092-10.249 11.092 0z" fill="#5E5D5D"/><path d="M.245 40.91c.596 10.893 12.356 11.172 11.736-.171C11.386 29.846-.375 29.563.245 40.91zm.957-.017c-.549-10.014 9.292-9.761 9.82-.141.55 10.014-9.292 9.761-9.82.141" fill="#383838"/><path d="M46.57 61.797c-.909 4.509-18.029.549-20.487-1.5-4.209-3.516-8.417-7.028-12.627-10.544-1.753-1.463-7.083-4.548-7.273-7.268-.292-4.154 5.941 1.417 6.683 2.069 4.295 3.759 8.608 7.501 12.974 11.182 3.677 3.098 7.896 3.279 12.552 2.829 2.99-.287 9.278-2.313 8.178 3.232" fill="#383838"/><defs><linearGradient id="paint1_linear" x1="6999.26" y1="-448.749" x2="6997.65" y2="-469.62" gradientUnits="userSpaceOnUse"><stop stop-color="#fff"/><stop offset=".463" stop-color="#FDFEFF"/><stop offset=".629" stop-color="#F6FAFF"/><stop offset=".748" stop-color="#EBF4FF"/><stop offset=".844" stop-color="#DAEAFF"/><stop offset=".925" stop-color="#C4DEFF"/><stop offset=".997" stop-color="#A9D0FF"/><stop offset="1" stop-color="#A8CFFF"/></linearGradient><linearGradient id="paint2_linear" x1="-52348.5" y1="46218.5" x2="-52180.6" y2="46408.4" gradientUnits="userSpaceOnUse"><stop stop-color="#FFD8BF"/><stop offset=".539" stop-color="#BF7400"/><stop offset="1"/></linearGradient><linearGradient id="paint3_linear" x1="-47163.6" y1="11373.4" x2="-47120.9" y2="11549.3" gradientUnits="userSpaceOnUse"><stop stop-color="#FFD8BF"/><stop offset=".539" stop-color="#BF7400"/><stop offset="1"/></linearGradient><linearGradient id="paint4_linear" x1="-52349.5" y1="46217.4" x2="-52179.6" y2="46409.6" gradientUnits="userSpaceOnUse"><stop stop-color="#F3C192"/><stop offset=".539" stop-color="#D49035"/><stop offset="1" stop-color="#765735"/></linearGradient><linearGradient id="paint5_linear" x1="-47163.4" y1="11374.4" x2="-47121.2" y2="11548.3" gradientUnits="userSpaceOnUse"><stop stop-color="#F3C192"/><stop offset=".539" stop-color="#D49035"/><stop offset="1" stop-color="#765735"/></linearGradient><linearGradient id="paint7_linear" x1="-1768.93" y1="5099.71" x2="-1749.5" y2="5106.47" gradientUnits="userSpaceOnUse"><stop stop-color="#fff"/><stop offset="1" stop-color="#818181"/></linearGradient><radialGradient id="paint0_radial" cx="0" cy="0" r="1" gradientUnits="userSpaceOnUse" gradientTransform="rotate(-.017 245195.715 -122738.74) scale(27.9424)"><stop stop-color="#B9DAF4"/><stop offset="1" stop-color="#7A97CB"/></radialGradient><radialGradient id="paint6_radial" cx="0" cy="0" r="1" gradientUnits="userSpaceOnUse" gradientTransform="translate(38.34 49.407) scale(54.4575)"><stop stop-color="#FFFA5F"/><stop offset="1" stop-color="#9F3300"/></radialGradient></defs></svg>