<svg width="60" height="60" fill="none" xmlns="http://www.w3.org/2000/svg"><path fill-rule="evenodd" clip-rule="evenodd" d="M0 30C0 13.431 13.431 0 30 0c16.569 0 30 13.431 30 30 0 16.569-13.431 30-30 30C13.431 60 0 46.569 0 30z" fill="#6FD454"/><path fill-rule="evenodd" clip-rule="evenodd" d="M21.214 15.061c.365-.03.677.058.879.392.453.735.91 1.47 1.34 2.223.5.869.959 1.763 1.449 2.641.125.236.3.45.447.677.134.214.263.435.388.649.258.487.245.976-.137 1.365-.545.558-1.145 1.075-1.724 1.604-.484.444-.986.87-1.457 1.323-.367.355-.462.799-.214 1.267.382.717.762 1.433 1.181 2.134 1.556 2.593 3.542 4.797 6.053 6.496a42.78 42.78 0 002.99 1.837c.959.542 1.332.45 2.076-.38.692-.768 1.36-1.549 2.048-2.323.165-.187.364-.352.557-.512.392-.33.82-.367 1.27-.14.126.06.26.116.37.196 1.195.854 2.53 1.457 3.79 2.182.677.389 1.335.805 2 1.203.358.211.502.52.477.946-.067 1.197-.266 2.373-.96 3.383-.292.42-.705.787-1.121 1.084-1.154.808-2.443 1.307-3.815 1.613-1.246.279-2.489.178-3.682-.196-2.305-.71-4.577-1.525-6.668-2.758-1.898-1.124-3.624-2.48-5.222-3.995-2.024-1.926-3.83-4.026-5.29-6.417-.952-1.552-1.632-3.223-2.247-4.928-.374-1.029-.741-2.048-.906-3.138-.19-1.234-.059-2.422.336-3.591.355-1.056.8-2.066 1.47-2.97.526-.7 1.184-1.215 2.035-1.444.683-.18 1.372-.325 2.058-.484.088.07.159.07.23.061z" fill="#fff"/></svg>