<svg width="250" height="250" fill="none" xmlns="http://www.w3.org/2000/svg"><path opacity=".95" d="M136.376 0l-21.262.466-5.934 23.09a101.927 101.927 0 00-19.935 5.182L72.357 11.043l-18.18 11.044 6.4 22.982a103.402 103.402 0 00-14.646 14.45l-23.503-6.884L12.209 71.28l17.013 16.69a101.885 101.885 0 00-5.45 19.847L0 113.607l.466 21.262 23.091 5.952a101.902 101.902 0 005.181 19.953l-17.676 16.869 11.025 18.18 22.965-6.4a103.463 103.463 0 0014.468 14.646l-6.884 23.485 18.645 10.219 16.672-16.996a101.874 101.874 0 0019.882 5.451L113.607 250l21.262-.467 5.952-23.09a101.911 101.911 0 0019.954-5.181l16.87 17.676 18.178-11.043-6.4-22.947a103.424 103.424 0 0014.664-14.468l23.468 6.867 10.218-18.646-16.996-16.672a101.78 101.78 0 005.45-19.881L250 136.375l-.466-21.261-23.091-5.934a101.974 101.974 0 00-5.181-19.954l17.676-16.888-11.025-18.16-22.984 6.4a103.423 103.423 0 00-14.467-14.665l6.884-23.486-18.645-10.218-16.673 17.013a101.876 101.876 0 00-19.881-5.45L136.374 0h.002z" fill="url(#paint0_radial)"/><path d="M208.225 117.73c0 21.435-8.765 41.993-24.365 57.15-15.6 15.157-36.758 23.672-58.82 23.672-22.062 0-43.22-8.515-58.82-23.672-15.6-15.157-24.364-35.715-24.364-57.15 0-21.435 8.764-41.992 24.364-57.15 15.6-15.156 36.758-23.671 58.82-23.671 22.062 0 43.22 8.515 58.82 23.672 15.6 15.157 24.365 35.714 24.365 57.149z" fill="#0E73C2"/><path d="M208.225 117.73c0 21.435-8.765 41.993-24.365 57.15-15.6 15.157-36.758 23.672-58.82 23.672-22.062 0-43.22-8.515-58.82-23.672-15.6-15.157-24.364-35.715-24.364-57.15 0-21.435 8.764-41.992 24.364-57.15 15.6-15.156 36.758-23.671 58.82-23.671 22.062 0 43.22 8.515 58.82 23.672 15.6 15.157 24.365 35.714 24.365 57.149z" stroke="url(#paint1_linear)" stroke-width="10"/><path d="M175.222 117.737a47.605 47.605 0 01-3.754 18.743 48.691 48.691 0 01-10.871 15.908 50.308 50.308 0 01-16.322 10.637 51.476 51.476 0 01-19.272 3.737 51.49 51.49 0 01-19.274-3.737 50.315 50.315 0 01-16.321-10.637 48.695 48.695 0 01-10.87-15.908 47.59 47.59 0 01-3.755-18.743 47.594 47.594 0 013.755-18.743 48.72 48.72 0 0110.87-15.909 50.332 50.332 0 0116.321-10.636 51.498 51.498 0 0119.274-3.737c6.615 0 13.165 1.27 19.272 3.737a50.326 50.326 0 0116.322 10.636 48.715 48.715 0 0110.871 15.909 47.61 47.61 0 013.754 18.743z" stroke="url(#paint2_linear)" stroke-width="4.922"/><path d="M172.426 117.734a44.94 44.94 0 01-3.545 17.702 46.016 46.016 0 01-10.266 15.025 47.552 47.552 0 01-15.415 10.046 48.649 48.649 0 01-18.203 3.528 48.644 48.644 0 01-18.202-3.528 47.543 47.543 0 01-15.415-10.046 46.019 46.019 0 01-10.266-15.025 44.944 44.944 0 01-3.546-17.702 44.944 44.944 0 013.546-17.702A46.006 46.006 0 0191.38 85.007a47.53 47.53 0 0115.415-10.046 48.635 48.635 0 0118.202-3.528A48.64 48.64 0 01143.2 74.96a47.539 47.539 0 0115.415 10.046 46.003 46.003 0 0110.266 15.025 44.94 44.94 0 013.545 17.702z" stroke="url(#paint3_linear)" stroke-width="4.648"/><path d="M171.178 117.732a43.736 43.736 0 01-3.452 17.236 44.766 44.766 0 01-9.996 14.63 46.285 46.285 0 01-15.009 9.781 47.34 47.34 0 01-17.723 3.436 47.333 47.333 0 01-17.723-3.436 46.28 46.28 0 01-15.01-9.781 44.795 44.795 0 01-9.996-14.63 43.758 43.758 0 01-3.452-17.236 43.761 43.761 0 013.452-17.236 44.8 44.8 0 019.996-14.629 46.283 46.283 0 0115.01-9.781 47.349 47.349 0 0117.723-3.436 47.356 47.356 0 0117.723 3.436 46.288 46.288 0 0115.009 9.781 44.771 44.771 0 019.996 14.629 43.74 43.74 0 013.452 17.236z" fill="#fff"/><path d="M168.025 117.736a40.754 40.754 0 01-3.215 16.059 41.772 41.772 0 01-9.314 13.63c-3.998 3.902-8.75 7-13.983 9.112A44.108 44.108 0 01125 159.739a44.108 44.108 0 01-16.513-3.202 43.12 43.12 0 01-13.983-9.112 41.758 41.758 0 01-9.313-13.63 40.771 40.771 0 01-3.217-16.059 40.766 40.766 0 013.217-16.058 41.731 41.731 0 019.313-13.63 43.13 43.13 0 0113.983-9.113A44.121 44.121 0 01125 75.734a44.121 44.121 0 0116.513 3.201 43.128 43.128 0 0113.983 9.113 41.746 41.746 0 019.314 13.63 40.749 40.749 0 013.215 16.058z" fill="url(#paint4_linear)"/><path opacity=".765" d="M146.485 117.733c0 5.544-2.265 10.861-6.301 14.781-4.034 3.921-9.506 6.123-15.211 6.123s-11.178-2.202-15.212-6.123c-4.035-3.92-6.301-9.237-6.301-14.781 0-5.543 2.266-10.86 6.301-14.78 4.034-3.92 9.507-6.123 15.212-6.123s11.177 2.203 15.211 6.123c4.036 3.92 6.301 9.237 6.301 14.78z" fill="#F9FAFD"/><path opacity=".765" d="M142.345 117.731c0 4.485-1.833 8.786-5.096 11.957-3.264 3.171-7.69 4.951-12.305 4.951-4.616 0-9.041-1.78-12.305-4.951-3.264-3.171-5.097-7.472-5.097-11.957 0-4.484 1.833-8.785 5.097-11.956 3.264-3.17 7.689-4.952 12.305-4.952 4.615 0 9.041 1.782 12.305 4.952 3.263 3.171 5.096 7.472 5.096 11.956z" stroke="url(#paint5_linear)" stroke-opacity=".694" stroke-width="4.333"/><defs><linearGradient id="paint1_linear" x1="122.993" y1="34.965" x2="121.952" y2="198.81" gradientUnits="userSpaceOnUse"><stop/><stop offset="1" stop-color="#6FACDB"/></linearGradient><linearGradient id="paint2_linear" x1="122.013" y1="68.943" x2="120.071" y2="126.202" gradientUnits="userSpaceOnUse"><stop stop-color="#063A5B"/><stop offset="1" stop-color="#063A5B" stop-opacity="0"/></linearGradient><linearGradient id="paint3_linear" x1="121.165" y1="163.905" x2="125.497" y2="70.429" gradientUnits="userSpaceOnUse"><stop stop-color="#4E4E4E"/><stop offset="1" stop-color="#BABABA"/></linearGradient><linearGradient id="paint4_linear" x1="123.403" y1="159.682" x2="125.066" y2="105.349" gradientUnits="userSpaceOnUse"><stop stop-color="#989A98"/><stop offset="1" stop-color="#364DAE" stop-opacity="0"/></linearGradient><linearGradient id="paint5_linear" x1="124.729" y1="96.558" x2="123.534" y2="148.303" gradientUnits="userSpaceOnUse"><stop/><stop offset="1" stop-opacity="0"/></linearGradient><radialGradient id="paint0_radial" cx="0" cy="0" r="1" gradientUnits="userSpaceOnUse" gradientTransform="matrix(160.87219 4.12257 -3.58418 139.86308 125.006 68.712)"><stop stop-color="#fff" stop-opacity=".216"/><stop offset="1" stop-color="#5B5B5B"/></radialGradient></defs></svg>