<svg width="16" height="16" fill="none" xmlns="http://www.w3.org/2000/svg"><path d="M15.766 11.808H5.346V3.604c0-.83.673-1.505 1.505-1.505h7.41c.831 0 1.505.674 1.505 1.505v8.204z" fill="#C7CFD3"/><path d="M2.725 6.205H4.64c.39 0 .706.35.706.78v4.812H.213V9.428c0-.277.083-.546.237-.765l1.384-1.975c.214-.305.542-.483.89-.483z" fill="#FF473E"/><path d="M.483 13.129h15.088c.23 0 .416-.187.416-.416v-.706a.21.21 0 00-.21-.21H.216a.149.149 0 00-.149.149v.767c0 .23.187.416.416.416z" fill="#2B3B47"/><path d="M1.18 8.84l1.213-1.73a.145.145 0 01.118-.064h1.435c.083 0 .15.074.15.166v1.73c0 .092-.067.166-.15.166H1.297c-.124 0-.194-.158-.118-.267z" fill="#76DFFF"/><path d="M.626 11.02H.213V9.926h.413a.35.35 0 01.351.351v.394a.35.35 0 01-.35.35z" fill="#FFD469"/><path d="M4.022 13.508a1.258 1.258 0 11-2.516 0 1.258 1.258 0 012.516 0zM8.8 12.25a1.258 1.258 0 100 2.515 1.258 1.258 0 000-2.515zm3.511 0a1.258 1.258 0 100 2.515 1.258 1.258 0 000-2.515z" fill="#597B91"/><path d="M3.588 13.508a.824.824 0 11-1.648 0 .824.824 0 011.648 0zm5.212-.824a.824.824 0 100 1.648.824.824 0 000-1.648zm3.511 0a.824.824 0 100 1.648.824.824 0 000-1.648z" fill="#2B3B47"/></svg>