<svg width="23" height="16" fill="none" xmlns="http://www.w3.org/2000/svg"><path d="M.75 3.5h9.75l.75 1.5H1.5L.75 3.5zm1 3h9.75l.75 1.5H2.5l-.75-1.5zm16.25 8c.83 0 1.5-.67 1.5-1.5s-.67-1.5-1.5-1.5-1.5.67-1.5 1.5.67 1.5 1.5 1.5zm1.5-9H17V8h4.46L19.5 5.5zM8 14.5c.83 0 1.5-.67 1.5-1.5s-.67-1.5-1.5-1.5-1.5.67-1.5 1.5.67 1.5 1.5 1.5zM20 4l3 4v5h-2c0 1.66-1.34 3-3 3s-3-1.34-3-3h-4c0 1.66-1.35 3-3 3-1.66 0-3-1.34-3-3H3V9.5h2V11h.76c.55-.61 1.35-1 2.24-1 .89 0 1.69.39 2.24 1H15V2H3c0-1.11.89-2 2-2h12v4h3z" fill="#000"/></svg>